{
    "asset" : {
        "generator" : "Khronos glTF Blender I/O v0.9.29",
        "version" : "2.0"
    },
    "scene" : 0,
    "scenes" : [
        {
            "name" : "Scene",
            "nodes" : [
                12
            ]
        }
    ],
    "nodes" : [
        {
            "mesh" : 0,
            "name" : "Cube.003",
            "scale" : [
                0.7203601002693176,
                1.766127109527588,
                0.8840952515602112
            ],
            "translation" : [
                0,
                -2.5871849060058594,
                0
            ]
        },
        {
            "mesh" : 0,
            "name" : "Cube.004",
            "rotation" : [
                0,
                1,
                0,
                1.6364846544547618e-07
            ],
            "scale" : [
                0.7441105842590332,
                1.766127109527588,
                0.8840952515602112
            ],
            "translation" : [
                0.011853818781673908,
                -45.274017333984375,
                0
            ]
        },
        {
            "mesh" : 1,
            "name" : "Cube.008",
            "scale" : [
                0.891092836856842,
                0.8950598835945129,
                0.8910928964614868
            ],
            "translation" : [
                0.004892445169389248,
                0,
                0.2709237039089203
            ]
        },
        {
            "children" : [
                2
            ],
            "mesh" : 2,
            "name" : "Cube.005",
            "rotation" : [
                0,
                1,
                0,
                1.9557694486138644e-07
            ],
            "scale" : [
                3.8745906352996826,
                64.8281478881836,
                3.525264024734497
            ],
            "translation" : [
                0,
                -10.532411575317383,
                0
            ]
        },
        {
            "mesh" : 1,
            "name" : "Cube.010",
            "rotation" : [
                0,
                1,
                0,
                2.034933572758746e-07
            ],
            "scale" : [
                4.895181655883789,
                33.704864501953125,
                3.6289851665496826
            ],
            "translation" : [
                -0.026875454932451248,
                -0.6047230362892151,
                -1.1033395528793335
            ]
        },
        {
            "children" : [
                4
            ],
            "mesh" : 3,
            "name" : "Cube.006",
            "scale" : [
                0.7053099274635315,
                1.7215638160705566,
                0.8656242489814758
            ],
            "translation" : [
                0,
                -22.94466209411621,
                0
            ]
        },
        {
            "mesh" : 1,
            "name" : "Cube.011",
            "rotation" : [
                0,
                1,
                0,
                1.7027254273216386e-07
            ],
            "scale" : [
                4.895181179046631,
                33.704864501953125,
                3.6289846897125244
            ],
            "translation" : [
                -0.026875466108322144,
                -0.6479311585426331,
                -1.1033393144607544
            ]
        },
        {
            "children" : [
                6
            ],
            "mesh" : 4,
            "name" : "Cube.007",
            "scale" : [
                0.7053098082542419,
                1.7215638160705566,
                0.8656242489814758
            ],
            "translation" : [
                0,
                -35.65650177001953,
                0
            ]
        },
        {
            "mesh" : 5,
            "name" : "Cube.009",
            "rotation" : [
                0,
                1,
                0,
                1.9557695907224115e-07
            ],
            "scale" : [
                3.957267999649048,
                7.637564659118652,
                3.600487470626831
            ],
            "translation" : [
                0,
                -17.13553810119629,
                0
            ]
        },
        {
            "mesh" : 6,
            "name" : "Cube.020",
            "rotation" : [
                0,
                1,
                0,
                1.636484796563309e-07
            ],
            "scale" : [
                3.957267999649048,
                66.50624084472656,
                3.600487470626831
            ],
            "translation" : [
                -8.958755643106997e-06,
                -27.244935989379883,
                0.8552402257919312
            ]
        },
        {
            "mesh" : 7,
            "name" : "nighttable_side.L",
            "rotation" : [
                0,
                1,
                0,
                1.636484796563309e-07
            ],
            "scale" : [
                3.957267999649048,
                66.50624084472656,
                3.600487470626831
            ],
            "translation" : [
                1.0175201892852783,
                -38.56056213378906,
                0
            ]
        },
        {
            "mesh" : 8,
            "name" : "nighttable_side.L.001",
            "rotation" : [
                0,
                0,
                -1,
                -1.792452852811266e-09
            ],
            "scale" : [
                -3.957267999649048,
                -66.50624084472656,
                -3.600487470626831
            ],
            "translation" : [
                -1.025603175163269,
                -38.56056213378906,
                0
            ]
        },
        {
            "children" : [
                0,
                1,
                3,
                5,
                7,
                8,
                9,
                10,
                11
            ],
            "mesh" : 9,
            "name" : "Cube.012",
            "rotation" : [
                0,
                -1,
                0,
                1.9470718370939721e-07
            ],
            "scale" : [
                0.21281464397907257,
                0.012662941589951515,
                0.23390290141105652
            ],
            "translation" : [
                -2.835271880030632e-05,
                0.32068198919296265,
                0.0001088753342628479
            ]
        }
    ],
    "materials" : [
        {
            "doubleSided" : true,
            "name" : "Wood_nightstand",
            "normalTexture" : {
                "index" : 0,
                "texCoord" : 0
            },
            "pbrMetallicRoughness" : {
                "baseColorTexture" : {
                    "index" : 1,
                    "texCoord" : 0
                },
                "metallicFactor" : 0,
                "roughnessFactor" : 0.5
            }
        },
        {
            "doubleSided" : true,
            "name" : "baked_handle",
            "pbrMetallicRoughness" : {
                "baseColorTexture" : {
                    "index" : 2,
                    "texCoord" : 0
                },
                "metallicFactor" : 1,
                "roughnessFactor" : 0.8500000238418579
            }
        }
    ],
    "meshes" : [
        {
            "name" : "Cube.017",
            "primitives" : [
                {
                    "attributes" : {
                        "POSITION" : 0,
                        "NORMAL" : 1,
                        "TEXCOORD_0" : 2
                    },
                    "indices" : 3,
                    "material" : 0
                }
            ]
        },
        {
            "name" : "Cube.021",
            "primitives" : [
                {
                    "attributes" : {
                        "POSITION" : 4,
                        "NORMAL" : 5,
                        "TEXCOORD_0" : 6
                    },
                    "indices" : 7,
                    "material" : 1
                }
            ]
        },
        {
            "name" : "Cube.020",
            "primitives" : [
                {
                    "attributes" : {
                        "POSITION" : 8,
                        "NORMAL" : 9,
                        "TEXCOORD_0" : 10
                    },
                    "indices" : 11,
                    "material" : 0
                }
            ]
        },
        {
            "name" : "Cube.023",
            "primitives" : [
                {
                    "attributes" : {
                        "POSITION" : 12,
                        "NORMAL" : 13,
                        "TEXCOORD_0" : 14
                    },
                    "indices" : 15,
                    "material" : 0
                }
            ]
        },
        {
            "name" : "Cube.019",
            "primitives" : [
                {
                    "attributes" : {
                        "POSITION" : 16,
                        "NORMAL" : 17,
                        "TEXCOORD_0" : 18
                    },
                    "indices" : 15,
                    "material" : 0
                }
            ]
        },
        {
            "name" : "Cube.022",
            "primitives" : [
                {
                    "attributes" : {
                        "POSITION" : 19,
                        "NORMAL" : 20,
                        "TEXCOORD_0" : 21
                    },
                    "indices" : 11,
                    "material" : 0
                }
            ]
        },
        {
            "name" : "Cube.008",
            "primitives" : [
                {
                    "attributes" : {
                        "POSITION" : 22,
                        "NORMAL" : 23,
                        "TEXCOORD_0" : 24
                    },
                    "indices" : 25,
                    "material" : 0
                }
            ]
        },
        {
            "name" : "Cube.016",
            "primitives" : [
                {
                    "attributes" : {
                        "POSITION" : 26,
                        "NORMAL" : 27,
                        "TEXCOORD_0" : 28
                    },
                    "indices" : 29,
                    "material" : 0
                }
            ]
        },
        {
            "name" : "Cube.016",
            "primitives" : [
                {
                    "attributes" : {
                        "POSITION" : 30,
                        "NORMAL" : 31,
                        "TEXCOORD_0" : 32
                    },
                    "indices" : 29,
                    "material" : 0
                }
            ]
        },
        {
            "name" : "Cube.024",
            "primitives" : [
                {
                    "attributes" : {
                        "POSITION" : 33,
                        "NORMAL" : 34,
                        "TEXCOORD_0" : 35
                    },
                    "indices" : 36,
                    "material" : 0
                }
            ]
        }
    ],
    "textures" : [
        {
            "source" : 0
        },
        {
            "source" : 1
        },
        {
            "source" : 2
        }
    ],
    "images" : [
        {
            "mimeType" : "image/jpeg",
            "name" : "WoodFlooring01_NRM",
            "uri" : "WoodFlooring01_NRM.jpg"
        },
        {
            "mimeType" : "image/jpeg",
            "name" : "WoodFlooring01",
            "uri" : "WoodFlooring01.jpg"
        },
        {
            "mimeType" : "image/png",
            "name" : "handle",
            "uri" : "handle.png"
        }
    ],
    "accessors" : [
        {
            "bufferView" : 0,
            "componentType" : 5126,
            "count" : 24,
            "max" : [
                1.415737509727478,
                1,
                0.9985445737838745
            ],
            "min" : [
                -1.415737509727478,
                -1,
                -0.9588480591773987
            ],
            "type" : "VEC3"
        },
        {
            "bufferView" : 1,
            "componentType" : 5126,
            "count" : 24,
            "type" : "VEC3"
        },
        {
            "bufferView" : 2,
            "componentType" : 5126,
            "count" : 24,
            "type" : "VEC2"
        },
        {
            "bufferView" : 3,
            "componentType" : 5123,
            "count" : 36,
            "type" : "SCALAR"
        },
        {
            "bufferView" : 4,
            "componentType" : 5126,
            "count" : 96,
            "max" : [
                0.12986983358860016,
                0.015779569745063782,
                0.022827744483947754
            ],
            "min" : [
                -0.12986983358860016,
                -0.015779569745063782,
                -0.022380083799362183
            ],
            "type" : "VEC3"
        },
        {
            "bufferView" : 5,
            "componentType" : 5126,
            "count" : 96,
            "type" : "VEC3"
        },
        {
            "bufferView" : 6,
            "componentType" : 5126,
            "count" : 96,
            "type" : "VEC2"
        },
        {
            "bufferView" : 7,
            "componentType" : 5123,
            "count" : 168,
            "type" : "SCALAR"
        },
        {
            "bufferView" : 8,
            "componentType" : 5126,
            "count" : 20,
            "max" : [
                0.2577134370803833,
                0.08975987881422043,
                0.2451915144920349
            ],
            "min" : [
                -0.25771328806877136,
                -0.08975987881422043,
                0.18942323327064514
            ],
            "type" : "VEC3"
        },
        {
            "bufferView" : 9,
            "componentType" : 5126,
            "count" : 20,
            "type" : "VEC3"
        },
        {
            "bufferView" : 10,
            "componentType" : 5126,
            "count" : 20,
            "type" : "VEC2"
        },
        {
            "bufferView" : 11,
            "componentType" : 5123,
            "count" : 30,
            "type" : "SCALAR"
        },
        {
            "bufferView" : 12,
            "componentType" : 5126,
            "count" : 20,
            "max" : [
                1.415737509727478,
                2.9072299003601074,
                -0.748908519744873
            ],
            "min" : [
                -1.415737509727478,
                -4.313991069793701,
                -0.9985446929931641
            ],
            "type" : "VEC3"
        },
        {
            "bufferView" : 13,
            "componentType" : 5126,
            "count" : 20,
            "type" : "VEC3"
        },
        {
            "bufferView" : 14,
            "componentType" : 5126,
            "count" : 20,
            "type" : "VEC2"
        },
        {
            "bufferView" : 15,
            "componentType" : 5123,
            "count" : 30,
            "type" : "SCALAR"
        },
        {
            "bufferView" : 16,
            "componentType" : 5126,
            "count" : 20,
            "max" : [
                1.415737509727478,
                2.9072299003601074,
                -0.748908519744873
            ],
            "min" : [
                -1.415737509727478,
                -4.313991069793701,
                -0.9985446929931641
            ],
            "type" : "VEC3"
        },
        {
            "bufferView" : 17,
            "componentType" : 5126,
            "count" : 20,
            "type" : "VEC3"
        },
        {
            "bufferView" : 18,
            "componentType" : 5126,
            "count" : 20,
            "type" : "VEC2"
        },
        {
            "bufferView" : 19,
            "componentType" : 5126,
            "count" : 20,
            "max" : [
                0.2577134370803833,
                0.08975987881422043,
                0.2451915144920349
            ],
            "min" : [
                -0.25771328806877136,
                -0.08975987881422043,
                0.18389347195625305
            ],
            "type" : "VEC3"
        },
        {
            "bufferView" : 20,
            "componentType" : 5126,
            "count" : 20,
            "type" : "VEC3"
        },
        {
            "bufferView" : 21,
            "componentType" : 5126,
            "count" : 20,
            "type" : "VEC2"
        },
        {
            "bufferView" : 22,
            "componentType" : 5126,
            "count" : 214,
            "max" : [
                0.2565033733844757,
                0.3442027270793915,
                0.007656692061573267
            ],
            "min" : [
                -0.2565033435821533,
                -0.29764431715011597,
                -0.007656721863895655
            ],
            "type" : "VEC3"
        },
        {
            "bufferView" : 23,
            "componentType" : 5126,
            "count" : 214,
            "type" : "VEC3"
        },
        {
            "bufferView" : 24,
            "componentType" : 5126,
            "count" : 214,
            "type" : "VEC2"
        },
        {
            "bufferView" : 25,
            "componentType" : 5123,
            "count" : 318,
            "type" : "SCALAR"
        },
        {
            "bufferView" : 26,
            "componentType" : 5126,
            "count" : 2518,
            "max" : [
                0.010988900437951088,
                0.5645401477813721,
                0.24519146978855133
            ],
            "min" : [
                -0.061344582587480545,
                -0.22340255975723267,
                -0.24519146978855133
            ],
            "type" : "VEC3"
        },
        {
            "bufferView" : 27,
            "componentType" : 5126,
            "count" : 2518,
            "type" : "VEC3"
        },
        {
            "bufferView" : 28,
            "componentType" : 5126,
            "count" : 2518,
            "type" : "VEC2"
        },
        {
            "bufferView" : 29,
            "componentType" : 5123,
            "count" : 3984,
            "type" : "SCALAR"
        },
        {
            "bufferView" : 30,
            "componentType" : 5126,
            "count" : 2518,
            "max" : [
                0.010988900437951088,
                0.5645401477813721,
                0.24519146978855133
            ],
            "min" : [
                -0.061344582587480545,
                -0.22340255975723267,
                -0.24519146978855133
            ],
            "type" : "VEC3"
        },
        {
            "bufferView" : 31,
            "componentType" : 5126,
            "count" : 2518,
            "type" : "VEC3"
        },
        {
            "bufferView" : 32,
            "componentType" : 5126,
            "count" : 2518,
            "type" : "VEC2"
        },
        {
            "bufferView" : 33,
            "componentType" : 5126,
            "count" : 864,
            "max" : [
                1.415737509727478,
                1,
                0.9985445737838745
            ],
            "min" : [
                -1.415737509727478,
                -1,
                -0.9985445737838745
            ],
            "type" : "VEC3"
        },
        {
            "bufferView" : 34,
            "componentType" : 5126,
            "count" : 864,
            "type" : "VEC3"
        },
        {
            "bufferView" : 35,
            "componentType" : 5126,
            "count" : 864,
            "type" : "VEC2"
        },
        {
            "bufferView" : 36,
            "componentType" : 5123,
            "count" : 1284,
            "type" : "SCALAR"
        }
    ],
    "bufferViews" : [
        {
            "buffer" : 0,
            "byteLength" : 288,
            "byteOffset" : 0
        },
        {
            "buffer" : 0,
            "byteLength" : 288,
            "byteOffset" : 288
        },
        {
            "buffer" : 0,
            "byteLength" : 192,
            "byteOffset" : 576
        },
        {
            "buffer" : 0,
            "byteLength" : 72,
            "byteOffset" : 768
        },
        {
            "buffer" : 0,
            "byteLength" : 1152,
            "byteOffset" : 840
        },
        {
            "buffer" : 0,
            "byteLength" : 1152,
            "byteOffset" : 1992
        },
        {
            "buffer" : 0,
            "byteLength" : 768,
            "byteOffset" : 3144
        },
        {
            "buffer" : 0,
            "byteLength" : 336,
            "byteOffset" : 3912
        },
        {
            "buffer" : 0,
            "byteLength" : 240,
            "byteOffset" : 4248
        },
        {
            "buffer" : 0,
            "byteLength" : 240,
            "byteOffset" : 4488
        },
        {
            "buffer" : 0,
            "byteLength" : 160,
            "byteOffset" : 4728
        },
        {
            "buffer" : 0,
            "byteLength" : 60,
            "byteOffset" : 4888
        },
        {
            "buffer" : 0,
            "byteLength" : 240,
            "byteOffset" : 4948
        },
        {
            "buffer" : 0,
            "byteLength" : 240,
            "byteOffset" : 5188
        },
        {
            "buffer" : 0,
            "byteLength" : 160,
            "byteOffset" : 5428
        },
        {
            "buffer" : 0,
            "byteLength" : 60,
            "byteOffset" : 5588
        },
        {
            "buffer" : 0,
            "byteLength" : 240,
            "byteOffset" : 5648
        },
        {
            "buffer" : 0,
            "byteLength" : 240,
            "byteOffset" : 5888
        },
        {
            "buffer" : 0,
            "byteLength" : 160,
            "byteOffset" : 6128
        },
        {
            "buffer" : 0,
            "byteLength" : 240,
            "byteOffset" : 6288
        },
        {
            "buffer" : 0,
            "byteLength" : 240,
            "byteOffset" : 6528
        },
        {
            "buffer" : 0,
            "byteLength" : 160,
            "byteOffset" : 6768
        },
        {
            "buffer" : 0,
            "byteLength" : 2568,
            "byteOffset" : 6928
        },
        {
            "buffer" : 0,
            "byteLength" : 2568,
            "byteOffset" : 9496
        },
        {
            "buffer" : 0,
            "byteLength" : 1712,
            "byteOffset" : 12064
        },
        {
            "buffer" : 0,
            "byteLength" : 636,
            "byteOffset" : 13776
        },
        {
            "buffer" : 0,
            "byteLength" : 30216,
            "byteOffset" : 14412
        },
        {
            "buffer" : 0,
            "byteLength" : 30216,
            "byteOffset" : 44628
        },
        {
            "buffer" : 0,
            "byteLength" : 20144,
            "byteOffset" : 74844
        },
        {
            "buffer" : 0,
            "byteLength" : 7968,
            "byteOffset" : 94988
        },
        {
            "buffer" : 0,
            "byteLength" : 30216,
            "byteOffset" : 102956
        },
        {
            "buffer" : 0,
            "byteLength" : 30216,
            "byteOffset" : 133172
        },
        {
            "buffer" : 0,
            "byteLength" : 20144,
            "byteOffset" : 163388
        },
        {
            "buffer" : 0,
            "byteLength" : 10368,
            "byteOffset" : 183532
        },
        {
            "buffer" : 0,
            "byteLength" : 10368,
            "byteOffset" : 193900
        },
        {
            "buffer" : 0,
            "byteLength" : 6912,
            "byteOffset" : 204268
        },
        {
            "buffer" : 0,
            "byteLength" : 2568,
            "byteOffset" : 211180
        }
    ],
    "buffers" : [
        {
            "byteLength" : 213748,
            "uri" : "nightstand.bin"
        }
    ]
}
