<?xml version="1.0" standalone="no"?>
<!DOCTYPE svg PUBLIC "-//W3C//DTD SVG 20010904//EN"
 "http://www.w3.org/TR/2001/REC-SVG-20010904/DTD/svg10.dtd">
<svg version="1.0" xmlns="http://www.w3.org/2000/svg"
 width="1200.000000pt" height="1200.000000pt" viewBox="0 0 1200.000000 1200.000000"
 preserveAspectRatio="xMidYMid meet">
<metadata>
Created by potrace 1.11, written by Peter Selinger 2001-2013
</metadata>
<g transform="translate(0.000000,1200.000000) scale(0.100000,-0.100000)"
fill="#000000" stroke="none">
<path d="M395 6182 l0 -5327 998 0 997 0 1 70 c0 38 0 1448 1 3133 0 1684 2
3062 5 3062 5 0 201 -166 213 -180 3 -3 39 -35 81 -71 41 -35 262 -226 490
-424 228 -199 427 -372 443 -385 16 -14 34 -30 40 -35 6 -6 81 -71 166 -145
85 -74 160 -139 166 -145 13 -11 27 -24 179 -155 142 -122 282 -244 320 -279
17 -15 80 -70 140 -121 61 -52 112 -97 115 -100 3 -3 52 -46 110 -95 58 -49
107 -93 110 -96 3 -3 79 -70 170 -148 91 -79 188 -163 215 -186 28 -24 61 -54
75 -65 14 -12 39 -34 55 -48 17 -15 80 -70 140 -122 61 -52 112 -97 115 -100
3 -3 36 -32 75 -65 38 -33 87 -75 107 -94 65 -59 76 -65 96 -50 26 21 236 201
247 213 6 6 57 51 115 101 58 49 112 96 121 105 8 8 40 35 69 60 45 38 401
347 605 525 33 29 152 132 265 230 205 178 324 281 344 300 6 6 43 37 81 70
39 33 72 62 75 65 3 3 86 75 184 160 161 139 390 338 471 409 17 14 82 71 145
126 63 55 117 102 120 105 15 16 733 635 740 638 4 2 8 -1393 8 -3100 0 -1707
1 -3117 1 -3133 l1 -30 989 0 c544 0 993 4 998 8 10 10 11 10637 1 10643 -4 2
-10 -2 -15 -9 -4 -7 -40 -40 -79 -72 -79 -67 -520 -450 -574 -499 -19 -17
-134 -117 -255 -221 -121 -104 -222 -192 -225 -195 -3 -3 -54 -48 -115 -100
-102 -88 -162 -141 -189 -165 -24 -22 -153 -133 -180 -156 -16 -13 -36 -31
-45 -39 -9 -9 -47 -43 -86 -75 -38 -33 -72 -62 -75 -65 -10 -10 -97 -86 -160
-140 -35 -30 -123 -106 -194 -169 -208 -181 -241 -210 -421 -366 -93 -81 -197
-171 -230 -200 -89 -78 -452 -392 -519 -450 -32 -27 -63 -55 -70 -60 -6 -6
-47 -42 -91 -80 -44 -39 -82 -72 -85 -75 -3 -3 -36 -32 -75 -65 -38 -33 -83
-72 -100 -86 -27 -24 -75 -65 -280 -244 -33 -28 -136 -118 -230 -200 -93 -81
-186 -162 -205 -179 -19 -17 -64 -56 -100 -86 -35 -30 -72 -62 -80 -70 -9 -8
-30 -26 -46 -40 -70 -60 -194 -167 -254 -220 -36 -31 -190 -166 -343 -299
l-278 -241 -32 29 c-18 16 -75 66 -127 111 -52 45 -108 94 -125 109 -16 14
-97 85 -180 156 -82 72 -163 142 -180 156 -16 15 -73 64 -125 109 -52 45 -108
94 -125 109 -47 42 -937 814 -969 841 -16 14 -34 30 -40 35 -6 6 -60 53 -120
105 -111 97 -162 141 -277 241 -35 31 -102 89 -149 129 -47 40 -87 76 -90 79
-3 3 -50 44 -105 91 -55 47 -109 94 -121 105 -12 11 -63 56 -115 100 -51 44
-101 87 -109 95 -20 18 -71 63 -125 109 -22 19 -67 57 -100 86 -33 29 -170
148 -305 265 -135 117 -261 226 -280 244 -19 17 -66 58 -105 91 -38 33 -72 62
-75 65 -3 3 -36 32 -75 65 -38 33 -85 74 -105 91 -30 27 -191 167 -434 378
-33 28 -64 56 -70 61 -11 11 -682 593 -725 630 -13 11 -29 25 -35 30 -92 82
-163 143 -171 147 -7 4 -10 -1748 -10 -5320z m685 3922 c19 -18 76 -66 125
-109 50 -42 104 -89 120 -104 17 -15 98 -85 180 -156 83 -71 152 -132 155
-135 3 -3 37 -32 75 -65 39 -33 72 -62 75 -65 6 -6 223 -195 264 -230 17 -14
51 -43 76 -65 25 -23 97 -86 160 -140 63 -55 129 -112 145 -126 17 -15 329
-286 695 -604 366 -318 681 -591 700 -609 20 -17 67 -58 105 -91 39 -33 72
-62 75 -65 3 -3 73 -64 155 -135 83 -71 164 -141 180 -156 38 -33 211 -184
245 -213 32 -27 131 -113 295 -257 72 -63 227 -197 345 -299 117 -102 221
-192 230 -200 8 -8 45 -40 80 -70 36 -30 81 -69 100 -86 30 -27 145 -127 260
-227 19 -17 45 -39 57 -50 l22 -20 103 89 c57 49 105 91 108 94 3 3 55 48 115
100 61 52 112 97 115 100 3 3 73 64 155 135 83 71 191 165 240 209 120 106
138 121 225 196 41 35 80 69 86 75 6 6 35 31 64 56 29 24 58 49 64 54 6 6 112
98 236 205 124 107 230 199 236 205 28 25 85 75 144 125 36 30 70 60 75 66 9
9 253 221 329 285 16 13 36 31 45 40 9 8 81 71 161 140 80 68 150 129 155 135
6 6 60 53 120 104 61 51 115 98 120 104 6 6 55 49 110 96 127 109 160 138 203
177 19 18 53 47 75 65 22 18 45 38 51 43 6 6 45 39 86 75 78 68 127 111 166
145 12 11 31 27 41 35 10 9 74 65 143 125 69 59 154 134 190 164 36 31 67 58
70 61 3 3 54 48 115 100 60 52 115 100 121 105 41 37 88 78 149 130 39 33 72
62 75 65 3 3 57 50 120 105 63 55 128 112 145 126 129 114 230 198 233 194 3
-2 4 -230 4 -506 l0 -502 -24 -21 c-13 -12 -75 -66 -138 -121 -63 -54 -117
-102 -120 -105 -3 -3 -68 -60 -145 -125 -77 -66 -142 -122 -145 -126 -3 -3
-126 -111 -275 -240 -148 -128 -283 -246 -300 -260 -16 -14 -87 -75 -156 -135
-69 -60 -154 -134 -189 -164 -34 -30 -72 -63 -84 -73 -12 -10 -35 -31 -51 -45
-17 -15 -49 -43 -71 -62 -22 -19 -69 -60 -105 -91 -35 -31 -190 -165 -344
-299 -154 -133 -296 -256 -315 -274 -19 -17 -102 -90 -185 -161 -82 -71 -152
-132 -155 -135 -3 -3 -52 -45 -110 -95 -58 -49 -107 -92 -110 -95 -3 -3 -36
-32 -75 -65 -38 -33 -72 -62 -75 -65 -3 -3 -61 -55 -130 -114 -69 -59 -141
-122 -160 -140 -20 -17 -83 -71 -140 -121 -58 -49 -110 -94 -116 -100 -6 -5
-37 -32 -69 -60 -32 -27 -63 -55 -69 -61 -6 -5 -45 -39 -86 -74 -41 -35 -82
-71 -91 -79 -9 -9 -40 -36 -69 -60 -29 -25 -58 -50 -64 -56 -6 -6 -130 -114
-276 -240 -146 -126 -267 -232 -270 -235 -3 -3 -34 -30 -70 -60 -66 -56 -94
-81 -165 -144 -22 -19 -42 -36 -45 -36 -3 0 -72 59 -155 131 -82 72 -174 152
-204 178 -30 25 -59 51 -65 56 -6 6 -42 37 -81 70 -38 33 -74 65 -80 71 -5 6
-59 53 -120 105 -100 85 -250 216 -424 368 -35 31 -73 64 -85 74 -12 10 -32
28 -46 40 -234 202 -321 277 -350 303 -29 26 -232 203 -584 508 -33 28 -64 56
-70 61 -6 6 -60 53 -121 104 -60 52 -114 99 -120 105 -5 6 -57 51 -115 101
-58 49 -107 92 -110 95 -3 3 -52 46 -110 95 -58 50 -110 95 -116 100 -6 6 -39
35 -74 65 -94 81 -400 348 -435 379 -16 14 -79 69 -140 121 -60 52 -115 99
-121 105 -6 5 -38 33 -70 61 -32 28 -115 101 -184 161 -69 60 -161 140 -205
178 -116 101 -674 585 -710 616 -16 14 -45 39 -63 55 l-34 30 0 489 c1 270 1
498 1 509 1 21 6 18 71 -40z m179 -1989 c19 -16 39 -34 45 -40 6 -5 43 -37 81
-70 38 -33 83 -72 100 -87 16 -14 42 -37 57 -50 15 -13 74 -63 132 -113 l105
-90 0 -2182 1 -2183 -385 0 -385 0 -1 38 c0 47 0 4846 0 4930 l1 63 108 -93
c59 -51 122 -106 141 -123z m9733 -2292 c-1 -1374 -1 -2504 -1 -2510 -1 -10
-85 -13 -386 -13 l-385 0 1 2183 0 2182 300 260 c165 143 321 278 347 300 26
22 62 54 82 72 19 17 37 30 39 28 2 -2 3 -1128 3 -2502z m-9214 -3747 l-3
-611 -370 0 c-203 -1 -377 1 -385 3 -13 3 -15 73 -13 570 1 312 2 586 2 608
l1 41 385 1 385 0 -2 -612z m9214 49 c-1 -308 -1 -583 -1 -610 l-1 -50 -385 0
-385 0 0 611 0 612 386 -2 386 -1 0 -560z"/>
</g>
</svg>
