{
    "asset" : {
        "generator" : "Khronos glTF Blender I/O v0.9.35",
        "version" : "2.0"
    },
    "scene" : 0,
    "scenes" : [
        {
            "name" : "Scene",
            "nodes" : [
                0
            ]
        }
    ],
    "nodes" : [
        {
            "mesh" : 0,
            "name" : "BODY.BAKE.lowerPoly",
            "rotation" : [
                0.7071067690849304,
                0,
                0,
                0.7071067690849304
            ],
            "scale" : [
                5.300000190734863,
                5.300000190734863,
                5.300000190734863
            ],
            "translation" : [
                -38.709232330322266,
                0,
                0
            ]
        }
    ],
    "materials" : [
        {
            "doubleSided" : true,
            "name" : "UKULELE_BAKED",
            "normalTexture" : {
                "index" : 0,
                "texCoord" : 0
            },
            "pbrMetallicRoughness" : {
                "baseColorTexture" : {
                    "index" : 1,
                    "texCoord" : 0
                },
                "metallicRoughnessTexture" : {
                    "index" : 2,
                    "texCoord" : 0
                }
            }
        }
    ],
    "meshes" : [
        {
            "name" : "Circle.041",
            "primitives" : [
                {
                    "attributes" : {
                        "POSITION" : 0,
                        "NORMAL" : 1,
                        "TEXCOORD_0" : 2,
                        "TEXCOORD_1" : 3,
                        "JOINTS_0" : 4,
                        "WEIGHTS_0" : 5
                    },
                    "indices" : 6,
                    "material" : 0
                },
                {
                    "attributes" : {
                        "POSITION" : 7,
                        "NORMAL" : 8,
                        "TEXCOORD_0" : 9,
                        "TEXCOORD_1" : 10,
                        "JOINTS_0" : 11,
                        "WEIGHTS_0" : 12
                    },
                    "indices" : 13,
                    "material" : 0
                },
                {
                    "attributes" : {
                        "POSITION" : 14,
                        "NORMAL" : 15,
                        "TEXCOORD_0" : 16,
                        "TEXCOORD_1" : 17,
                        "JOINTS_0" : 18,
                        "WEIGHTS_0" : 19
                    },
                    "indices" : 20,
                    "material" : 0
                },
                {
                    "attributes" : {
                        "POSITION" : 21,
                        "NORMAL" : 22,
                        "TEXCOORD_0" : 23,
                        "TEXCOORD_1" : 24,
                        "JOINTS_0" : 25,
                        "WEIGHTS_0" : 26
                    },
                    "indices" : 27,
                    "material" : 0
                }
            ]
        }
    ],
    "textures" : [
        {
            "source" : 0
        },
        {
            "source" : 1
        },
        {
            "source" : 2
        }
    ],
    "images" : [
        {
            "mimeType" : "image/png",
            "name" : "UKE_NRM",
            "uri" : "UKE_NRM.png"
        },
        {
            "mimeType" : "image/jpeg",
            "name" : "UKE_DIFF",
            "uri" : "UKE_DIFF.jpg"
        },
        {
            "mimeType" : "image/jpeg",
            "name" : "UKE_ROUGH",
            "uri" : "UKE_ROUGH.jpg"
        }
    ],
    "accessors" : [
        {
            "bufferView" : 0,
            "componentType" : 5126,
            "count" : 65535,
            "max" : [
                0.6673197746276855,
                0.07317305356264114,
                0.8959364891052246
            ],
            "min" : [
                -0.6673192977905273,
                -0.45000019669532776,
                -3.312720537185669
            ],
            "type" : "VEC3"
        },
        {
            "bufferView" : 1,
            "componentType" : 5126,
            "count" : 65535,
            "type" : "VEC3"
        },
        {
            "bufferView" : 2,
            "componentType" : 5126,
            "count" : 65535,
            "type" : "VEC2"
        },
        {
            "bufferView" : 3,
            "componentType" : 5126,
            "count" : 65535,
            "type" : "VEC2"
        },
        {
            "bufferView" : 4,
            "componentType" : 5123,
            "count" : 65535,
            "type" : "VEC4"
        },
        {
            "bufferView" : 5,
            "componentType" : 5126,
            "count" : 65535,
            "type" : "VEC4"
        },
        {
            "bufferView" : 6,
            "componentType" : 5123,
            "count" : 234177,
            "type" : "SCALAR"
        },
        {
            "bufferView" : 7,
            "componentType" : 5126,
            "count" : 65533,
            "max" : [
                0.27610862255096436,
                0.07492846250534058,
                0.42084619402885437
            ],
            "min" : [
                -0.27610862255096436,
                -0.07658286392688751,
                -3.063124895095825
            ],
            "type" : "VEC3"
        },
        {
            "bufferView" : 8,
            "componentType" : 5126,
            "count" : 65533,
            "type" : "VEC3"
        },
        {
            "bufferView" : 9,
            "componentType" : 5126,
            "count" : 65533,
            "type" : "VEC2"
        },
        {
            "bufferView" : 10,
            "componentType" : 5126,
            "count" : 65533,
            "type" : "VEC2"
        },
        {
            "bufferView" : 11,
            "componentType" : 5123,
            "count" : 65533,
            "type" : "VEC4"
        },
        {
            "bufferView" : 12,
            "componentType" : 5126,
            "count" : 65533,
            "type" : "VEC4"
        },
        {
            "bufferView" : 13,
            "componentType" : 5123,
            "count" : 99426,
            "type" : "SCALAR"
        },
        {
            "bufferView" : 14,
            "componentType" : 5126,
            "count" : 11824,
            "max" : [
                0.27536436915397644,
                0.04414702206850052,
                -0.07180540263652802
            ],
            "min" : [
                -0.27536439895629883,
                -0.4408385455608368,
                -3.1283979415893555
            ],
            "type" : "VEC3"
        },
        {
            "bufferView" : 15,
            "componentType" : 5126,
            "count" : 11824,
            "type" : "VEC3"
        },
        {
            "bufferView" : 16,
            "componentType" : 5126,
            "count" : 11824,
            "type" : "VEC2"
        },
        {
            "bufferView" : 17,
            "componentType" : 5126,
            "count" : 11824,
            "type" : "VEC2"
        },
        {
            "bufferView" : 18,
            "componentType" : 5123,
            "count" : 11824,
            "type" : "VEC4"
        },
        {
            "bufferView" : 19,
            "componentType" : 5126,
            "count" : 11824,
            "type" : "VEC4"
        },
        {
            "bufferView" : 20,
            "componentType" : 5123,
            "count" : 23385,
            "type" : "SCALAR"
        },
        {
            "bufferView" : 21,
            "componentType" : 5126,
            "count" : 106,
            "max" : [
                0.2564328610897064,
                0.028324076905846596,
                0.4155171513557434
            ],
            "min" : [
                -0.2564328610897064,
                -0.008874169550836086,
                -0.6036026477813721
            ],
            "type" : "VEC3"
        },
        {
            "bufferView" : 22,
            "componentType" : 5126,
            "count" : 106,
            "type" : "VEC3"
        },
        {
            "bufferView" : 23,
            "componentType" : 5126,
            "count" : 106,
            "type" : "VEC2"
        },
        {
            "bufferView" : 24,
            "componentType" : 5126,
            "count" : 106,
            "type" : "VEC2"
        },
        {
            "bufferView" : 25,
            "componentType" : 5123,
            "count" : 106,
            "type" : "VEC4"
        },
        {
            "bufferView" : 26,
            "componentType" : 5126,
            "count" : 106,
            "type" : "VEC4"
        },
        {
            "bufferView" : 27,
            "componentType" : 5123,
            "count" : 138,
            "type" : "SCALAR"
        }
    ],
    "bufferViews" : [
        {
            "buffer" : 0,
            "byteLength" : 786420,
            "byteOffset" : 0
        },
        {
            "buffer" : 0,
            "byteLength" : 786420,
            "byteOffset" : 786420
        },
        {
            "buffer" : 0,
            "byteLength" : 524280,
            "byteOffset" : 1572840
        },
        {
            "buffer" : 0,
            "byteLength" : 524280,
            "byteOffset" : 2097120
        },
        {
            "buffer" : 0,
            "byteLength" : 524280,
            "byteOffset" : 2621400
        },
        {
            "buffer" : 0,
            "byteLength" : 1048560,
            "byteOffset" : 3145680
        },
        {
            "buffer" : 0,
            "byteLength" : 468354,
            "byteOffset" : 4194240
        },
        {
            "buffer" : 0,
            "byteLength" : 786396,
            "byteOffset" : 4662596
        },
        {
            "buffer" : 0,
            "byteLength" : 786396,
            "byteOffset" : 5448992
        },
        {
            "buffer" : 0,
            "byteLength" : 524264,
            "byteOffset" : 6235388
        },
        {
            "buffer" : 0,
            "byteLength" : 524264,
            "byteOffset" : 6759652
        },
        {
            "buffer" : 0,
            "byteLength" : 524264,
            "byteOffset" : 7283916
        },
        {
            "buffer" : 0,
            "byteLength" : 1048528,
            "byteOffset" : 7808180
        },
        {
            "buffer" : 0,
            "byteLength" : 198852,
            "byteOffset" : 8856708
        },
        {
            "buffer" : 0,
            "byteLength" : 141888,
            "byteOffset" : 9055560
        },
        {
            "buffer" : 0,
            "byteLength" : 141888,
            "byteOffset" : 9197448
        },
        {
            "buffer" : 0,
            "byteLength" : 94592,
            "byteOffset" : 9339336
        },
        {
            "buffer" : 0,
            "byteLength" : 94592,
            "byteOffset" : 9433928
        },
        {
            "buffer" : 0,
            "byteLength" : 94592,
            "byteOffset" : 9528520
        },
        {
            "buffer" : 0,
            "byteLength" : 189184,
            "byteOffset" : 9623112
        },
        {
            "buffer" : 0,
            "byteLength" : 46770,
            "byteOffset" : 9812296
        },
        {
            "buffer" : 0,
            "byteLength" : 1272,
            "byteOffset" : 9859068
        },
        {
            "buffer" : 0,
            "byteLength" : 1272,
            "byteOffset" : 9860340
        },
        {
            "buffer" : 0,
            "byteLength" : 848,
            "byteOffset" : 9861612
        },
        {
            "buffer" : 0,
            "byteLength" : 848,
            "byteOffset" : 9862460
        },
        {
            "buffer" : 0,
            "byteLength" : 848,
            "byteOffset" : 9863308
        },
        {
            "buffer" : 0,
            "byteLength" : 1696,
            "byteOffset" : 9864156
        },
        {
            "buffer" : 0,
            "byteLength" : 276,
            "byteOffset" : 9865852
        }
    ],
    "buffers" : [
        {
            "byteLength" : 9866128,
            "uri" : "ukulele.bin"
        }
    ]
}
