{
    "asset" : {
        "generator" : "Khronos glTF Blender I/O v0.9.35",
        "version" : "2.0"
    },
    "scene" : 0,
    "scenes" : [
        {
            "name" : "Scene",
            "nodes" : [
                0
            ]
        }
    ],
    "nodes" : [
        {
            "mesh" : 0,
            "name" : "BODY.BAKE.lowerPoly",
            "rotation" : [
                0.7071067690849304,
                0,
                0,
                0.7071067690849304
            ],
            "scale" : [
                5.300000190734863,
                5.300000190734863,
                5.300000190734863
            ],
            "translation" : [
                -38.709232330322266,
                0,
                0
            ]
        }
    ],
    "materials" : [
        {
            "doubleSided" : true,
            "name" : "UKULELE_BAKED",
            "normalTexture" : {
                "index" : 0,
                "texCoord" : 0
            },
            "pbrMetallicRoughness" : {
                "baseColorTexture" : {
                    "index" : 1,
                    "texCoord" : 0
                },

                "metallicRoughnessTexture" : {
                    "index" : 2,
                    "texCoord" : 0
                }
            }
        }
    ],
    "meshes" : [
        {
            "name" : "Circle.041",
            "primitives" : [
                {
                    "attributes" : {
                        "POSITION" : 0,
                        "NORMAL" : 1,
                        "TEXCOORD_0" : 2,
                        "TEXCOORD_1" : 3,
                        "JOINTS_0" : 4,
                        "WEIGHTS_0" : 5
                    },
                    "indices" : 6,
                    "material" : 0
                },
                {
                    "attributes" : {
                        "POSITION" : 7,
                        "NORMAL" : 8,
                        "TEXCOORD_0" : 9,
                        "TEXCOORD_1" : 10,
                        "JOINTS_0" : 11,
                        "WEIGHTS_0" : 12
                    },
                    "indices" : 13,
                    "material" : 0
                },
                {
                    "attributes" : {
                        "POSITION" : 14,
                        "NORMAL" : 15,
                        "TEXCOORD_0" : 16,
                        "TEXCOORD_1" : 17,
                        "JOINTS_0" : 18,
                        "WEIGHTS_0" : 19
                    },
                    "indices" : 20,
                    "material" : 0
                },
                {
                    "attributes" : {
                        "POSITION" : 21,
                        "NORMAL" : 22,
                        "TEXCOORD_0" : 23,
                        "TEXCOORD_1" : 24,
                        "JOINTS_0" : 25,
                        "WEIGHTS_0" : 26
                    },
                    "indices" : 27,
                    "material" : 0
                }
            ]
        }
    ],
    "textures" : [
        {
            "source" : 0
        },
        {
            "source" : 1
        },
        {
            "source" : 2
        }
    ],
    "images" : [
        {
            "mimeType" : "image/png",
            "name" : "UKE_NRM",
            "uri" : "UKE_NRM.png"
        },
        {
            "mimeType" : "image/jpeg",
            "name" : "UKE_DIFF",
            "uri" : "UKE_DIFF.jpg"
        },
        {
            "mimeType" : "image/jpeg",
            "name" : "UKE_ROUGH",
            "uri" : "UKE_ROUGH.jpg"
        }
    ],
    "accessors" : [
        {
            "bufferView" : 0,
            "componentType" : 5126,
            "count" : 65535,
            "max" : [
                0.6673197746276855,
                0.056757085025310516,
                0.8959364891052246
            ],
            "min" : [
                -0.6673192977905273,
                -0.45000019669532776,
                -3.312720537185669
            ],
            "type" : "VEC3"
        },
        {
            "bufferView" : 1,
            "componentType" : 5126,
            "count" : 65535,
            "type" : "VEC3"
        },
        {
            "bufferView" : 2,
            "componentType" : 5126,
            "count" : 65535,
            "type" : "VEC2"
        },
        {
            "bufferView" : 3,
            "componentType" : 5126,
            "count" : 65535,
            "type" : "VEC2"
        },
        {
            "bufferView" : 4,
            "componentType" : 5123,
            "count" : 65535,
            "type" : "VEC4"
        },
        {
            "bufferView" : 5,
            "componentType" : 5126,
            "count" : 65535,
            "type" : "VEC4"
        },
        {
            "bufferView" : 6,
            "componentType" : 5123,
            "count" : 270126,
            "type" : "SCALAR"
        },
        {
            "bufferView" : 7,
            "componentType" : 5126,
            "count" : 65535,
            "max" : [
                0.23299162089824677,
                0.07492846250534058,
                0.42084619402885437
            ],
            "min" : [
                -0.27610862255096436,
                -0.07658286392688751,
                -3.063124895095825
            ],
            "type" : "VEC3"
        },
        {
            "bufferView" : 8,
            "componentType" : 5126,
            "count" : 65535,
            "type" : "VEC3"
        },
        {
            "bufferView" : 9,
            "componentType" : 5126,
            "count" : 65535,
            "type" : "VEC2"
        },
        {
            "bufferView" : 10,
            "componentType" : 5126,
            "count" : 65535,
            "type" : "VEC2"
        },
        {
            "bufferView" : 11,
            "componentType" : 5123,
            "count" : 65535,
            "type" : "VEC4"
        },
        {
            "bufferView" : 12,
            "componentType" : 5126,
            "count" : 65535,
            "type" : "VEC4"
        },
        {
            "bufferView" : 13,
            "componentType" : 5123,
            "count" : 99393,
            "type" : "SCALAR"
        },
        {
            "bufferView" : 14,
            "componentType" : 5126,
            "count" : 19685,
            "max" : [
                0.27610862255096436,
                0.04414702206850052,
                -0.07180540263652802
            ],
            "min" : [
                -0.27536439895629883,
                -0.4408385455608368,
                -3.1283979415893555
            ],
            "type" : "VEC3"
        },
        {
            "bufferView" : 15,
            "componentType" : 5126,
            "count" : 19685,
            "type" : "VEC3"
        },
        {
            "bufferView" : 16,
            "componentType" : 5126,
            "count" : 19685,
            "type" : "VEC2"
        },
        {
            "bufferView" : 17,
            "componentType" : 5126,
            "count" : 19685,
            "type" : "VEC2"
        },
        {
            "bufferView" : 18,
            "componentType" : 5123,
            "count" : 19685,
            "type" : "VEC4"
        },
        {
            "bufferView" : 19,
            "componentType" : 5126,
            "count" : 19685,
            "type" : "VEC4"
        },
        {
            "bufferView" : 20,
            "componentType" : 5123,
            "count" : 35508,
            "type" : "SCALAR"
        },
        {
            "bufferView" : 21,
            "componentType" : 5126,
            "count" : 29,
            "max" : [
                -0.08760151267051697,
                0.022504687309265137,
                -0.452547162771225
            ],
            "min" : [
                -0.2548010051250458,
                0.002734034089371562,
                -2.7455942630767822
            ],
            "type" : "VEC3"
        },
        {
            "bufferView" : 22,
            "componentType" : 5126,
            "count" : 29,
            "type" : "VEC3"
        },
        {
            "bufferView" : 23,
            "componentType" : 5126,
            "count" : 29,
            "type" : "VEC2"
        },
        {
            "bufferView" : 24,
            "componentType" : 5126,
            "count" : 29,
            "type" : "VEC2"
        },
        {
            "bufferView" : 25,
            "componentType" : 5123,
            "count" : 29,
            "type" : "VEC4"
        },
        {
            "bufferView" : 26,
            "componentType" : 5126,
            "count" : 29,
            "type" : "VEC4"
        },
        {
            "bufferView" : 27,
            "componentType" : 5123,
            "count" : 39,
            "type" : "SCALAR"
        }
    ],
    "bufferViews" : [
        {
            "buffer" : 0,
            "byteLength" : 786420,
            "byteOffset" : 0
        },
        {
            "buffer" : 0,
            "byteLength" : 786420,
            "byteOffset" : 786420
        },
        {
            "buffer" : 0,
            "byteLength" : 524280,
            "byteOffset" : 1572840
        },
        {
            "buffer" : 0,
            "byteLength" : 524280,
            "byteOffset" : 2097120
        },
        {
            "buffer" : 0,
            "byteLength" : 524280,
            "byteOffset" : 2621400
        },
        {
            "buffer" : 0,
            "byteLength" : 1048560,
            "byteOffset" : 3145680
        },
        {
            "buffer" : 0,
            "byteLength" : 540252,
            "byteOffset" : 4194240
        },
        {
            "buffer" : 0,
            "byteLength" : 786420,
            "byteOffset" : 4734492
        },
        {
            "buffer" : 0,
            "byteLength" : 786420,
            "byteOffset" : 5520912
        },
        {
            "buffer" : 0,
            "byteLength" : 524280,
            "byteOffset" : 6307332
        },
        {
            "buffer" : 0,
            "byteLength" : 524280,
            "byteOffset" : 6831612
        },
        {
            "buffer" : 0,
            "byteLength" : 524280,
            "byteOffset" : 7355892
        },
        {
            "buffer" : 0,
            "byteLength" : 1048560,
            "byteOffset" : 7880172
        },
        {
            "buffer" : 0,
            "byteLength" : 198786,
            "byteOffset" : 8928732
        },
        {
            "buffer" : 0,
            "byteLength" : 236220,
            "byteOffset" : 9127520
        },
        {
            "buffer" : 0,
            "byteLength" : 236220,
            "byteOffset" : 9363740
        },
        {
            "buffer" : 0,
            "byteLength" : 157480,
            "byteOffset" : 9599960
        },
        {
            "buffer" : 0,
            "byteLength" : 157480,
            "byteOffset" : 9757440
        },
        {
            "buffer" : 0,
            "byteLength" : 157480,
            "byteOffset" : 9914920
        },
        {
            "buffer" : 0,
            "byteLength" : 314960,
            "byteOffset" : 10072400
        },
        {
            "buffer" : 0,
            "byteLength" : 71016,
            "byteOffset" : 10387360
        },
        {
            "buffer" : 0,
            "byteLength" : 348,
            "byteOffset" : 10458376
        },
        {
            "buffer" : 0,
            "byteLength" : 348,
            "byteOffset" : 10458724
        },
        {
            "buffer" : 0,
            "byteLength" : 232,
            "byteOffset" : 10459072
        },
        {
            "buffer" : 0,
            "byteLength" : 232,
            "byteOffset" : 10459304
        },
        {
            "buffer" : 0,
            "byteLength" : 232,
            "byteOffset" : 10459536
        },
        {
            "buffer" : 0,
            "byteLength" : 464,
            "byteOffset" : 10459768
        },
        {
            "buffer" : 0,
            "byteLength" : 78,
            "byteOffset" : 10460232
        }
    ],
    "buffers" : [
        {
            "byteLength" : 10460312,
            "uri" : "ukulele.bin"
        }
    ]
}
